<svg xmlns="http://www.w3.org/2000/svg" width="40" height="40" fill="none" viewBox="0 0 40 40"><path stroke="#000" stroke-linecap="round" stroke-width="1.053" d="M14.8684 12.629L11.6734 14.4737V25L20.7895 30.2631L29.9055 25V14.4737L20.7895 9.21051L17.8289 10.9198"/><circle cx="35.526" cy="2.632" r="1.842" fill="#36BAFF" stroke="#000" stroke-width="1.053"/><circle cx="35.526" cy="10" r="1.842" fill="#FFA100" stroke="#000" stroke-width="1.053"/><circle cx="20.789" cy="9.211" r="1.842" fill="#FD2D3A" stroke="#000" stroke-width="1.053"/><circle cx="20.789" cy="30" r="1.842" fill="#FD2D3A" stroke="#000" stroke-width="1.053"/><circle cx="20.789" cy="37.368" r="1.842" fill="#FFA100" stroke="#000" stroke-width="1.053"/><circle cx="29.791" cy="24.803" r="1.842" fill="#FD2D3A" stroke="#000" stroke-width="1.053" transform="rotate(120 29.7915 24.8026)"/><path fill="#FFA100" d="M33.7006 31.2169C32.8196 30.7082 32.5177 29.5816 33.0264 28.7005C33.5351 27.8195 34.6617 27.5176 35.5428 28.0263C35.7792 28.1628 35.9739 28.3438 36.1225 28.5526C36.1996 28.661 36.2642 28.7769 36.3158 28.8979C36.3937 29.0807 36.4419 29.2753 36.458 29.4736C36.4874 29.8337 36.4113 30.2061 36.217 30.5426C35.7083 31.4237 34.5817 31.7256 33.7006 31.2169Z"/><path stroke="#000" stroke-linecap="round" stroke-width="1.053" d="M35.5428 28.0263C34.6617 27.5176 33.5351 27.8195 33.0264 28.7005C32.5177 29.5816 32.8196 30.7082 33.7006 31.2169C34.5817 31.7256 35.7083 31.4237 36.217 30.5426"/><circle cx="29.358" cy="35.148" r="1.842" fill="#36BAFF" stroke="#000" stroke-width="1.053" transform="rotate(120 29.3584 35.1479)"/><circle cx="11.787" cy="14.408" r="1.842" fill="#FD2D3A" stroke="#000" stroke-width="1.053" transform="rotate(120 11.7873 14.4079)"/><circle cx="29.792" cy="14.408" r="1.842" fill="#FD2D3A" stroke="#000" stroke-width="1.053" transform="rotate(60 29.7916 14.408)"/><circle cx="11.787" cy="24.803" r="1.842" fill="#FD2D3A" stroke="#000" stroke-width="1.053" transform="rotate(60 11.7873 24.8027)"/><circle cx="5.148" cy="24.803" r="1.842" fill="#36BAFF" stroke="#000" stroke-width="1.053" transform="rotate(60 5.14789 24.8027)"/><path stroke="#000" stroke-width="1.053" d="M35.5262 4.21051V8.28946"/><path stroke="#000" stroke-width="1.053" d="M34.0789 11.1841L31.1842 13.1578"/><path stroke="#000" stroke-width="1.053" d="M20.921 31.7105V35.5263"/><path stroke="#000" stroke-width="1.053" d="M31.0526 25.7895L33.5526 28.2895M33.5526 31.0526L30.5262 33.9474"/><path stroke="#000" stroke-width="1.053" d="M9.99996 24.9999L7.10522 24.9999"/></svg>